<svg xmlns="http://www.w3.org/2000/svg" viewBox="0 0 500 500"><g id="freepik--character-3--inject-1"><ellipse cx="373.9" cy="455.2" rx="52.33" ry="11.8" style="fill:#263238;stroke:#263238;stroke-linecap:round;stroke-linejoin:round"></ellipse><path d="M333.55,188.48s-7.08,4.33-7,6.23-2.64,36.55-2.95,40.88-4.43,13.27-4.75,17.33.7,8.13,1.89,10,5.56,7.85,5.56,7.85l11.75-18.15a103.73,103.73,0,0,0,.18-11.91C338.05,232.06,333.55,188.48,333.55,188.48Z" style="fill:#fff;stroke:#263238;stroke-linecap:round;stroke-linejoin:round"></path><path d="M378.76,102.62s-12.5-.8-19.62,7.87-5.59,21.93-5.64,26-12.14,16-10.8,20.86,4.9,5.41,3.76,9.47-8.58,6.5-7.5,11.65,5,12.45,5,12.45l72,.49s2.57-7.58-.17-13.27-6.63-7.57-6-10.28,4.11-9.21,2.77-14.08-6-6.22-6.49-14.89-1.77-23-8.65-30S378.76,102.62,378.76,102.62Z" style="fill:#263238;stroke:#263238;stroke-linecap:round;stroke-linejoin:round"></path><path d="M356.62,436.73a64,64,0,0,1-8,11.92c-4.6,5.15-9.06,7.86-8.91,10.57s10.19,3.24,15.5,1.34,9.17-5.69,10.24-6,4.06,0,4.13-3.8-.51-14.62-.51-14.62Z" style="fill:#fff;stroke:#263238;stroke-linecap:round;stroke-linejoin:round"></path><path d="M355.19,460.56c5.32-1.9,9.17-5.69,10.24-6s4.06,0,4.13-3.8c0-2-.11-6-.25-9.27a9.45,9.45,0,0,1-8.1,5s-.1-1.9-3-5.14c-1.87-2.12-3.76-.45-4.86,1l-.89,1.34-.07.13h0a48,48,0,0,1-3.78,4.87c-4.6,5.15-9.06,7.86-8.91,10.57S349.88,462.46,355.19,460.56Z" style="fill:#fff;stroke:#263238;stroke-linecap:round;stroke-linejoin:round"></path><path d="M393.67,436.71a74.28,74.28,0,0,0,9.3,11.91c5.15,5.14,9.9,7.84,10,10.55s-9.84,3.25-15.36,1.36-9.78-5.68-10.87-5.95-4.07,0-4.54-3.78-1.06-14.62-1.06-14.62Z" style="fill:#fff;stroke:#263238;stroke-linecap:round;stroke-linejoin:round"></path><path d="M397.65,460.53c-5.51-1.89-9.78-5.68-10.87-5.95s-4.07,0-4.54-3.78c-.25-2-.53-6-.74-9.28a10.6,10.6,0,0,0,8.63,4.94s-.1-1.9,2.43-5.15c1.65-2.11,3.72-.45,5,1,.33.44.67.88,1,1.34l.09.13h0a59.77,59.77,0,0,0,4.3,4.87c5.15,5.14,9.9,7.84,10,10.55S403.17,462.42,397.65,460.53Z" style="fill:#fff;stroke:#263238;stroke-linecap:round;stroke-linejoin:round"></path><path d="M334.87,293.8s1.67,56.31,3.89,67.41,12.13,74.72,12.13,74.72a23.81,23.81,0,0,0,9.58,1.88H371.3l1-47.38.37-68.77,5.43,116.41s14.92.53,16.53.26,2.95-.54,2.95-.54l9.59-73.65,5.49-49,.3-19.49s-45.84-1.59-59.16-2.67S335,291.63,335,291.63Z" style="fill:#90CAF9;stroke:#263238;stroke-linecap:round;stroke-linejoin:round"></path><path d="M396.77,393.22c-.12.94-.24,1.81-.38,2.61" style="fill:none;stroke:#263238;stroke-linecap:round;stroke-linejoin:round"></path><path d="M398,325.43s.93,40.12-.7,61.9" style="fill:none;stroke:#263238;stroke-linecap:round;stroke-linejoin:round"></path><path d="M348.85,322.21s1.15,26.54,2.29,32.49" style="fill:none;stroke:#263238;stroke-linecap:round;stroke-linejoin:round"></path><path d="M391.58,305.3v20.26a43.83,43.83,0,0,0,7.93,1.37c4.11.27,11.78,0,11.78,0l.55-7.67Z" style="fill:#263238;stroke:#263238;stroke-linecap:round;stroke-linejoin:round"></path><path d="M335.72,320.9s10.41,3.29,14.79,3.56,8.48.82,8.48.82l-.54-5.47-23.28-2.19Z" style="fill:#263238;stroke:#263238;stroke-linecap:round;stroke-linejoin:round"></path><path d="M367.32,167.07l-8.17,9.21-22.66,16.53L341.32,293s18.06,4.86,33.56,6.21,35.43-2.2,35.43-2.2l-2.93-105s-8.82-13-13.34-16.51-6.59-6.76-12.58-7.3S367.32,167.07,367.32,167.07Z" style="fill:#90CAF9;stroke:#263238;stroke-linecap:round;stroke-linejoin:round"></path><path d="M357.84,172l-24.29,16.53,3.81,60.91-1.29,6.12-10.21,11.76,4.35,20.66-1.94,29.15s9.65,3.25,16.19,4.05a142.42,142.42,0,0,0,14.66.81l.84-39.8s3.23-66.07,3.61-69,3.75-46,3.75-46Z" style="fill:#fff;stroke:#263238;stroke-linecap:round;stroke-linejoin:round"></path><polyline points="358.23 174.49 346.47 203.98 359.16 209.25 347.18 211.43 357.79 253" style="fill:none;stroke:#263238;stroke-linecap:round;stroke-linejoin:round"></polyline><path d="M365.28,159.22s4.22,28.15,7.54,34.65,4.26,8.66,4.26,8.66,7.22-21.94,8.67-25.19,3-14.89,3-14.89S374.36,167.06,365.28,159.22Z" style="fill:#fff;stroke:#263238;stroke-linecap:round;stroke-linejoin:round"></path><path d="M365.28,159.22s.38,2.56,1,6.31c2.11,1.61,7.7,5.59,11.83,5.8,3.15.16,7.15-1.88,9.81-3.51.48-2.95.81-5.37.81-5.37S374.36,167.06,365.28,159.22Z" style="fill:#263238;stroke:#263238;stroke-linecap:round;stroke-linejoin:round"></path><path d="M359.55,139.76s-2.88-4.1-4.82,0,3,10.17,4.38,11c3.92,2.33,2.88-2,2.88-2Z" style="fill:#fff;stroke:#263238;stroke-linecap:round;stroke-linejoin:round"></path><path d="M395.32,141.53s2.43-4.24,4.81-.24-1.91,10.29-3.19,11.18c-3.66,2.53-3.08-1.81-3.08-1.81Z" style="fill:#fff;stroke:#263238;stroke-linecap:round;stroke-linejoin:round"></path><path d="M358.87,136.14s10.44-2.44,15.7-5.55a28.82,28.82,0,0,0,8.27-7.53s4.52,8.54,8.5,12,4.81,3.66,4.81,3.66-1.91,14.95-4.07,20.15-9.21,10.26-15.79,8.8c-3.74-.82-10.22-3.52-12.1-8.07S358.87,136.14,358.87,136.14Z" style="fill:#fff;stroke:#263238;stroke-linecap:round;stroke-linejoin:round"></path><path d="M385.51,147.63c-3.24.08-14.09.1-19.69-3.28a37.17,37.17,0,0,1-6.27-4.59c.2,1,.44,2.25.7,3.55l1.22.89,3.06,11.56-1.43.31a34.62,34.62,0,0,0,1.09,3.49c1.88,4.55,8.36,7.25,12.1,8.07,6.57,1.45,13.6-3.58,15.78-8.77a4.93,4.93,0,0,1-.43-3.27c.63-3.27,1.41-9,1.41-9l2.23-2c.12-.73.22-1.43.32-2.07C392.9,144.39,387.84,147.57,385.51,147.63Z" style="fill:#90CAF9;stroke:#263238;stroke-linecap:round;stroke-linejoin:round"></path><path d="M373.6,142.8s-3.49-4.24-8.07-3.85" style="fill:none;stroke:#263238;stroke-linecap:round;stroke-linejoin:round"></path><path d="M382.59,143.64a9.89,9.89,0,0,1,8.79-2.94" style="fill:none;stroke:#263238;stroke-linecap:round;stroke-linejoin:round"></path><path d="M363.52,136.83s5-2,9.43-1.06" style="fill:none;stroke:#263238;stroke-linecap:round;stroke-linejoin:round"></path><path d="M383,136.86a7.21,7.21,0,0,1,8.19,1.14" style="fill:none;stroke:#263238;stroke-linecap:round;stroke-linejoin:round"></path><path d="M370.24,141.41a1.18,1.18,0,0,1-1,1.34,1.24,1.24,0,0,1-1.1-1.29,1.17,1.17,0,0,1,1-1.34A1.25,1.25,0,0,1,370.24,141.41Z" style="fill:#263238"></path><path d="M388.35,142.71a1.15,1.15,0,0,1-1,1.34,1.23,1.23,0,0,1-1.1-1.28,1.15,1.15,0,0,1,1-1.34A1.23,1.23,0,0,1,388.35,142.71Z" style="fill:#263238"></path><path d="M415.28,182.74s5.83,2.7,8,7,19.52,50.89,19.44,54.41-5.82,7.58-11.2,8.13-13.22-9.2-14.39-10.82-1.38-20.58-1.38-20.58Z" style="fill:#fff;stroke:#263238;stroke-linecap:round;stroke-linejoin:round"></path><path d="M387.8,170.3l2.84,93.14,1,58.75a74.65,74.65,0,0,0,16.63,2.15,35.42,35.42,0,0,0,13.68-2.44s-1.7-36.55-2-42.51-2.28-17.33-2.28-17.33l-2.36-79.32S393.34,172.46,387.8,170.3Z" style="fill:#fff;stroke:#263238;stroke-linecap:round;stroke-linejoin:round"></path><polyline points="394.04 175.44 404.11 208.29 394.93 210.78 403.86 215.11 392.72 250.5" style="fill:#fff;stroke:#263238;stroke-linecap:round;stroke-linejoin:round"></polyline><path d="M401.06,205.49l-12.49,59.84s8.54,2.7,14.78,3,19.24.26,19.24.26l13-55.78S410,210.36,401.06,205.49Z" style="fill:#263238;stroke:#263238;stroke-linecap:round;stroke-linejoin:round"></path><path d="M405.41,261.26l.41-18.7,9.91,2.09S409.18,259.08,405.41,261.26Z" style="fill:#fff;stroke:#263238;stroke-linecap:round;stroke-linejoin:round"></path><path d="M413,235.8s-2.64-3.78-3.49-4.6-5.05-3.24-5.86-3.24-5.16-.27-6-.27-1.79,1.9-.93,2.71,3.85,1.08,3.85,1.08l2.05,3-9.25-.81s-1.54,1.63-1.19,3a18.41,18.41,0,0,0,1,2.71,42.77,42.77,0,0,0,.31,5.95c.36,1.63,2,2.17,4.25,3.52s9.78.54,9.78.54H411Z" style="fill:#fff;stroke:#263238;stroke-linecap:round;stroke-linejoin:round"></path><path d="M435.55,237.68l-24-3.23s-1.87,15.44-3.76,20.58-2.38,6.23-2.38,6.23,25.15-.56,31.08-1.1,9.26-4.07,9-8.94-3.23-9.75-3.23-9.75" style="fill:#fff;stroke:#263238;stroke-linecap:round;stroke-linejoin:round"></path><path d="M335.47,254.54s5.6,3.51,7,4.6,1.52,8.12,2.41,9.47-.16,2.17-1.78,2.17-4.07-5.14-4.07-5.14l-.1-1.9-11.44,3.8-3-5.14S327.89,254.54,335.47,254.54Z" style="fill:#fff;stroke:#263238;stroke-linecap:round;stroke-linejoin:round"></path></g><g id="freepik--character-1--inject-1"><ellipse cx="128.68" cy="455.2" rx="52.33" ry="11.8" style="fill:#263238;stroke:#263238;stroke-linecap:round;stroke-linejoin:round"></ellipse><path d="M163.14,211.13v9.56l13.9,6.37s1.45-6.37.29-17.67Z" style="fill:#999;stroke:#263238;stroke-linecap:round;stroke-linejoin:round"></path><path d="M94.15,440.54a99.64,99.64,0,0,0-9,8.77c-4,4.51-4.78,9-1.06,11.15s9.56,1.59,15.93-2.39,6.11-5.58,9.83-6.9,6.11-4,6.11-8.24-13.55-4.78-16.47-5S94.15,440.54,94.15,440.54Z" style="fill:#fff;stroke:#263238;stroke-linecap:round;stroke-linejoin:round"></path><path d="M115.93,442.93s-6,2.66-8.91,5.08-8.71,11.13-15.49,11.13a20.13,20.13,0,0,1-9.86-2.57,4.4,4.4,0,0,0,2.39,3.89c3.72,2.12,9.56,1.59,15.93-2.39s6.11-5.58,9.83-6.9S115.93,447.18,115.93,442.93Z" style="fill:none;stroke:#263238;stroke-linecap:round;stroke-linejoin:round"></path><path d="M161.54,440.54a99.64,99.64,0,0,1,9,8.77c4,4.51,4.78,9,1.06,11.15s-9.56,1.59-15.93-2.39-6.11-5.58-9.83-6.9-6.11-4-6.11-8.24,13.55-4.78,16.47-5S161.54,440.54,161.54,440.54Z" style="fill:#fff;stroke:#263238;stroke-linecap:round;stroke-linejoin:round"></path><path d="M139.76,442.93s6,2.66,8.91,5.08,8.71,11.13,15.49,11.13a20.13,20.13,0,0,0,9.86-2.57,4.4,4.4,0,0,1-2.39,3.89c-3.72,2.12-9.56,1.59-15.93-2.39s-6.11-5.58-9.83-6.9S139.76,447.18,139.76,442.93Z" style="fill:none;stroke:#263238;stroke-linecap:round;stroke-linejoin:round"></path><path d="M86.45,289.7s1.59,59.75,2.39,68.52S92,386.9,92,388s1.32,45.15,1.32,45.15l-2.39,4,.8,5.58,10.62,2.12c5.31,1.06,12.22,2.66,13.28,1.6s1.33-3.19,1.86-6.11,1.59-8.24.53-12.48,1.33-49.4,1.6-50.46S126,332.72,126,332.72s4,35.86,6.9,46.74,1.86,27.09,2.92,33.46,3.19,27.89,3.46,29.48.79,4,.79,4,13.28-1.86,15.67-2.93a51.36,51.36,0,0,1,7.44-2.12s.79-15.14-.27-21.25a86,86,0,0,1-1.33-13c0-1.86,1.33-60.81,1.33-60.81l-1.33-57.1s-35.85,3.72-49.66,1.06S86.72,286,86.72,286Z" style="fill:#90CAF9;stroke:#263238;stroke-linecap:round;stroke-linejoin:round"></path><path d="M111.94,290.23C98.13,287.58,86.72,286,86.72,286l-.27,3.71s.09,3.43.24,8.75c6.33,1.77,19.19,4.88,31.62,4.88,13.14,0,34.07-4,43.49-5.91l-.2-8.25S125.75,292.89,111.94,290.23Z" style="fill:#263238;stroke:#263238;stroke-linecap:round;stroke-linejoin:round"></path><path d="M158.07,424.79c.17,1.83.28,2.88.28,2.88" style="fill:none;stroke:#263238;stroke-linecap:round;stroke-linejoin:round"></path><path d="M154,303.72s1,51.32,1,70.69c0,13.4,1.62,33.74,2.62,45" style="fill:none;stroke:#263238;stroke-linecap:round;stroke-linejoin:round"></path><line x1="100.25" y1="300.82" x2="102.67" y2="356.5" style="fill:none;stroke:#263238;stroke-linecap:round;stroke-linejoin:round"></line><line x1="102.18" y1="360.85" x2="102.18" y2="370.05" style="fill:none;stroke:#263238;stroke-linecap:round;stroke-linejoin:round"></line><path d="M114.77,149.44a8.23,8.23,0,0,0-6.67,3.47,47.27,47.27,0,0,1-5.5,6.08L78.85,171.74l2.32,90.66.87,31s18.24,6.08,35.62,6.08,48.37-7,48.37-7-2.6-120.78-1.73-120.78S147.21,156.1,139.1,152,114.77,149.44,114.77,149.44Z" style="fill:#90CAF9;stroke:#263238;stroke-linecap:round;stroke-linejoin:round"></path><path d="M108,160.4s9.2,16.95,13.08,24.7S132.2,204,132.2,204l12.11-32.44" style="fill:none;stroke:#263238;stroke-linecap:round;stroke-linejoin:round"></path><path d="M114.8,267.91l-.47-13.53L87,252.79s.27,19.92.8,21" style="fill:none;stroke:#263238;stroke-linecap:round;stroke-linejoin:round"></path><line x1="115.13" y1="277.49" x2="115" y2="273.69" style="fill:none;stroke:#263238;stroke-linecap:round;stroke-linejoin:round"></line><path d="M147.53,275.36l-.8-22.3s9.56.79,17.53-4.52" style="fill:none;stroke:#263238;stroke-linecap:round;stroke-linejoin:round"></path><path d="M106.55,199.92c.84,2.65,3.4,4.21,5.71,3.47s3.48-3.49,2.63-6.14-3.4-4.21-5.71-3.47S105.7,197.27,106.55,199.92Z" style="fill:none;stroke:#263238;stroke-linecap:round;stroke-linejoin:round"></path><path d="M106.82,153.52s-3.07,11.8,3.91,43.83" style="fill:none;stroke:#263238;stroke-linecap:round;stroke-linejoin:round;stroke-width:2px"></path><path d="M112.88,198.45a2.42,2.42,0,1,1-1.43-3.38A2.61,2.61,0,0,1,112.88,198.45Z" style="fill:none;stroke:#263238;stroke-linecap:round;stroke-linejoin:round"></path><path d="M163.14,170s4.34,3.19,4.63,4.35,15.06,36.49,15.06,36.49L161.4,214l.29-20.86" style="fill:#90CAF9;stroke:#263238;stroke-linecap:round;stroke-linejoin:round"></path><path d="M81.75,170.58s-4.93.58-6.09,4.34-9.55,42-9.55,42L96.81,214l-2.9-28.68" style="fill:#90CAF9;stroke:#263238;stroke-linecap:round;stroke-linejoin:round"></path><path d="M141.05,151.72s7.61,4.34,8.36,15.14,0,13.54,0,13.54" style="fill:none;stroke:#263238;stroke-linecap:round;stroke-linejoin:round;stroke-width:2px"></path><path d="M152.85,194.23s-.68,12.77-2.07,16.46-6.89,8.06-11.25,8.76" style="fill:none;stroke:#263238;stroke-linecap:round;stroke-linejoin:round"></path><path d="M143,192.85s-.61,14.73-.67,17.47,2.7,7.51,6.66,12.08" style="fill:none;stroke:#263238;stroke-linecap:round;stroke-linejoin:round"></path><rect x="147.75" y="220.91" width="2.69" height="3.43" rx="1.27" transform="translate(405.13 301.63) rotate(140.96)" style="fill:#263238"></rect><rect x="138.31" y="217.94" width="2.69" height="3.43" rx="1.27" transform="translate(-50.15 397.78) rotate(-100.73)" style="fill:#263238"></rect><path d="M153,195.2l-.29-10.73a4.5,4.5,0,0,0-4.18-4.38h0a4.5,4.5,0,0,0-4.82,4.13l-.9,10.88" style="fill:none;stroke:#263238;stroke-linecap:round;stroke-linejoin:round;stroke-width:2px"></path><path d="M177.91,219.82,171,218.37l-24.33-4.05-34.12-6.5-8.09-3.57s-7.65-10-8.31-11-9.31,2.49-9,3.82,1.33,14.62,2,15.46,8.14.83,8.14.83,35.64,17.2,37.12,17.83c20.57,8.67,30.49,8.59,34,9.16s5.8-.85,7.82-3.17S177.91,219.82,177.91,219.82Z" style="fill:#999;stroke:#263238;stroke-linecap:round;stroke-linejoin:round"></path><path d="M95.11,193.11s-4.15.17-10.3,4.32c-2.29,1.55-3.49,2.66-3.49,3.33a10.24,10.24,0,0,0,.67,2.32,64,64,0,0,1,12.46-4.48" style="fill:#999;stroke:#263238;stroke-linecap:round;stroke-linejoin:round"></path><path d="M96.77,203.75s-11.29,2.82-13.12,3.16-2.16-1.5-2.16-2.16.5-1.67,2.49-2.66,12-3.66,12-3.66" style="fill:#999;stroke:#263238;stroke-linecap:round;stroke-linejoin:round"></path><path d="M97.94,208.9s-13.13,1.33-14.13.5a3.21,3.21,0,0,1-.83-2.49l11.8-2.5" style="fill:#999;stroke:#263238;stroke-linecap:round;stroke-linejoin:round"></path><path d="M94.28,209.56l-10.13.5s.49,1.5,1,1.66a44.4,44.4,0,0,0,7.31,1.17,34.38,34.38,0,0,1,4.82.5" style="fill:#999;stroke:#263238;stroke-linecap:round;stroke-linejoin:round"></path><path d="M72.48,216.34s4.63,20,5.79,21.44,10.72,0,20.28-2.9,50.11-20.27,50.11-20.27l5.79,1.15s-2.32-7.24-6.37-7.53S96.81,214,96.81,214Z" style="fill:#999;stroke:#263238;stroke-linecap:round;stroke-linejoin:round"></path><path d="M113,136.69s0,.43,0,1.16c.09,3.81.46,15.91,1.43,18.83,1.16,3.47,16.8,32.73,18,30.41s8.4-33.89,8.4-33.89V140.75s-3.77,3.18-10.72,3.18S113,136.69,113,136.69Z" style="fill:#999;stroke:#263238;stroke-linecap:round;stroke-linejoin:round"></path><path d="M136.2,153.85a40.72,40.72,0,0,0,4.64-3.3v-9.8s-3.77,3.18-10.72,3.18S113,136.69,113,136.69s0,.43,0,1.16c0,1.34.1,3.71.22,6.35a10.14,10.14,0,0,0,.92,1.25c2,2.31,11.58,8.11,13.9,8.69S133.59,155.29,136.2,153.85Z" style="fill:#263238;stroke:#263238;stroke-linecap:round;stroke-linejoin:round"></path><path d="M147.79,119.89s4.63-2.61,4.63,2.32-4.34,10.72-4.34,10.72Z" style="fill:#999;stroke:#263238;stroke-linecap:round;stroke-linejoin:round"></path><path d="M106.37,120.18s-6.38-1.74-6.38,4.06,5.8,9.55,5.8,9.55h4s2.32,5.8,4.35,8.11,11.58,8.11,13.9,8.69,5.5,1.16,8.11-.29a48.24,48.24,0,0,0,9-7.24c1.16-1.44,3.19-11.29,3.19-11.29s.58-17.67-.58-23.75-8.69-15.64-19.12-16.8-20.28,7.24-21.72,13.9S106.37,120.18,106.37,120.18Z" style="fill:#999;stroke:#263238;stroke-linecap:round;stroke-linejoin:round"></path><path d="M125.19,124.82s-2,4.05,1.45,5.21,7.82.87,8.69-.87-.58-3.76-.58-3.76" style="fill:none;stroke:#263238;stroke-linecap:round;stroke-linejoin:round"></path><path d="M121.72,132.06s7.24,6.08,17.09.29" style="fill:none;stroke:#263238;stroke-linecap:round;stroke-linejoin:round"></path><path d="M125.77,137.56s6.09,3.48,10.14-.58" style="fill:none;stroke:#263238;stroke-linecap:round;stroke-linejoin:round"></path><ellipse cx="122.3" cy="119.02" rx="1.45" ry="2.32" style="fill:#263238"></ellipse><path d="M137.94,118.73c0,1.28-.65,2.32-1.45,2.32s-1.45-1-1.45-2.32.65-2.31,1.45-2.31S137.94,117.45,137.94,118.73Z" style="fill:#263238"></path><path d="M118.24,115.84s1.45-2.32,7-1.45" style="fill:none;stroke:#263238;stroke-linecap:round;stroke-linejoin:round"></path><path d="M134.17,114.68s2.61-4.06,6.67,0" style="fill:none;stroke:#263238;stroke-linecap:round;stroke-linejoin:round"></path><path d="M147.79,108a16.34,16.34,0,0,0-1.93-4.88,18.07,18.07,0,0,0-.35,4.88c.42,2.12,1.91,5.08,1.91,6.56s-.22,7.41.84,6.57a1.3,1.3,0,0,0,.25-.38A88.83,88.83,0,0,0,147.79,108Z" style="fill:#263238;stroke:#263238;stroke-linecap:round;stroke-linejoin:round"></path><path d="M133.23,96a41.41,41.41,0,0,0,5.54-.67,21.14,21.14,0,0,0-10.1-4.06c-10.43-1.16-20.28,7.24-21.72,13.9s-.58,15.06-.58,15.06,2.3,1.6,3.15-.09,0-4.45.85-7.41,2.11-4.45,2.32-6.78-1.27-5.71-.42-7.62,6.14-5.5,9.53-4.23A29.55,29.55,0,0,0,133.23,96Z" style="fill:#263238;stroke:#263238;stroke-linecap:round;stroke-linejoin:round"></path></g></svg>